<?xml version="1.0" encoding="UTF-8"?>
<!DOCTYPE svg PUBLIC "-//W3C//DTD SVG 1.1//EN"
    "http://www.w3.org/Graphics/SVG/1.1/DTD/svg11.dtd" >
<svg contentScriptType="text/ecmascript" width="2049.0752"
     xmlns:xlink="http://www.w3.org/1999/xlink" zoomAndPan="magnify"
     contentStyleType="text/css"
     viewBox="-1059.560059 -723.000000 2049.075195 1629.000000" height="1629.0"
     preserveAspectRatio="xMidYMid meet" xmlns="http://www.w3.org/2000/svg"
     version="1.1">
    <g id="edges">
        <path stroke-linecap="round" fill="none" class="id_2 id_35"
              d="M 525.724915,-325.066376 A 186.181913,186.181913 0,0 1,510.097046,-517.039551"
              stroke="#fcffa5" stroke-width="1.0" stroke-opacity="1.0"/>
        <path stroke-linecap="round" fill="none" class="id_2 id_45"
              d="M 519.923767,-317.052185 A 323.585828,323.585828 0,0 1,318.147644,-612.517273"
              stroke="#fcffa5" stroke-width="1.0" stroke-opacity="1.0"/>
        <path stroke-linecap="round" fill="none" class="id_2 id_78"
              d="M 519.210144,-306.451019 A 177.179889,177.179889 0,0 1,349.647400,-371.893280"
              stroke="#fcffa5" stroke-width="2.0" stroke-opacity="1.0"/>
        <path stroke-linecap="round" fill="none" class="id_2 id_79"
              d="M 530.146667,-293.418213 A 567.038908,567.038908 0,0 1,15.944221,45.725266"
              stroke="#c5c8d2" stroke-width="2.0" stroke-opacity="1.0"/>
        <path stroke-linecap="round" fill="none" class="id_22 id_79"
              d="M 140.917206,-283.800507 A 322.966906,322.966906 0,0 1,7.815325,12.826996"
              stroke="#8f91ff" stroke-width="2.0" stroke-opacity="1.0"/>
        <path stroke-linecap="round" fill="none" class="id_25 id_79"
              d="M 332.245087,189.344681 A 347.830746,347.830746 0,0 1,-6.864255,90.211700"
              stroke="#8f91ff" stroke-width="1.0" stroke-opacity="1.0"/>
        <path stroke-linecap="round" fill="none" class="id_25 id_92"
              d="M 361.994537,195.256210 A 207.939000,207.939000 0,0 1,430.408081,397.112671"
              stroke="#8f91ff" stroke-width="1.0" stroke-opacity="1.0"/>
        <path stroke-linecap="round" fill="none" class="id_26 id_29"
              d="M -734.865479,297.569946 A 392.516795,392.516795 0,0 1,-408.140900,582.691345"
              stroke="#c5c8d2" stroke-width="1.0" stroke-opacity="1.0"/>
        <path stroke-linecap="round" fill="none" class="id_26 id_44"
              d="M -738.882935,307.863251 A 230.550782,230.550782 0,0 1,-659.521484,536.471558"
              stroke="#8f91ff" stroke-width="1.0" stroke-opacity="1.0"/>
        <path stroke-linecap="round" fill="none" class="id_26 id_79"
              d="M -743.822693,278.088379 A 629.261500,629.261500 0,0 1,-102.054832,27.938534"
              stroke="#8f91ff" stroke-width="1.0" stroke-opacity="1.0"/>
        <path stroke-linecap="round" fill="none" class="id_26 id_85"
              d="M -771.751587,281.831543 A 252.382548,252.382548 0,0 1,-845.742249,33.897331"
              stroke="#8f91ff" stroke-width="1.0" stroke-opacity="1.0"/>
        <path stroke-linecap="round" fill="none" class="id_29 id_39"
              d="M -408.460907,582.770752 A 244.535691,244.535691 0,0 1,-319.621521,341.940460"
              stroke="#fcffa5" stroke-width="1.0" stroke-opacity="1.0"/>
        <path stroke-linecap="round" fill="none" class="id_29 id_44"
              d="M -425.156525,616.409607 A 222.818111,222.818111 0,0 1,-650.150757,571.541199"
              stroke="#c5c8d2" stroke-width="1.0" stroke-opacity="1.0"/>
        <path stroke-linecap="round" fill="none" class="id_29 id_79"
              d="M -403.698242,582.039246 A 556.622547,556.622547 0,0 1,-98.905540,67.272125"
              stroke="#c5c8d2" stroke-width="2.0" stroke-opacity="1.0"/>
        <path stroke-linecap="round" fill="none" class="id_29 id_85"
              d="M -425.816437,598.879089 A 619.215521,619.215521 0,0 1,-835.701477,35.448177"
              stroke="#c5c8d2" stroke-width="1.0" stroke-opacity="1.0"/>
        <path stroke-linecap="round" fill="none" class="id_29 id_97"
              d="M -419.840057,589.244568 A 422.699034,422.699034 0,0 1,-502.619141,137.664276"
              stroke="#c5c8d2" stroke-width="1.0" stroke-opacity="1.0"/>
        <path stroke-linecap="round" fill="none" class="id_35 id_45"
              d="M 500.803436,-530.656921 A 186.189301,186.189301 0,0 1,327.820709,-615.027466"
              stroke="#fcffa5" stroke-width="1.0" stroke-opacity="1.0"/>
        <path stroke-linecap="round" fill="none" class="id_35 id_78"
              d="M 513.820496,-515.451172 A 193.353264,193.353264 0,0 1,357.494965,-388.703918"
              stroke="#fcffa5" stroke-width="1.0" stroke-opacity="1.0"/>
        <path stroke-linecap="round" fill="none" class="id_35 id_79"
              d="M 516.536255,-514.846313 A 671.515985,671.515985 0,0 1,14.829016,31.274801"
              stroke="#c5c8d2" stroke-width="1.0" stroke-opacity="1.0"/>
        <path stroke-linecap="round" fill="none" class="id_39 id_79"
              d="M -301.251526,310.875580 A 322.728920,322.728920 0,0 1,-101.567558,59.985527"
              stroke="#c5c8d2" stroke-width="1.0" stroke-opacity="1.0"/>
        <path stroke-linecap="round" fill="none" class="id_39 id_97"
              d="M -322.586761,325.031342 A 241.668870,241.668870 0,0 1,-484.425446,140.558456"
              stroke="#c5c8d2" stroke-width="1.0" stroke-opacity="1.0"/>
        <path stroke-linecap="round" fill="none" class="id_44 id_79"
              d="M -659.765137,536.407288 A 671.574121,671.574121 0,0 1,-103.742477,48.609844"
              stroke="#8f91ff" stroke-width="1.0" stroke-opacity="1.0"/>
        <path stroke-linecap="round" fill="none" class="id_44 id_85"
              d="M -681.695190,544.034363 A 482.668590,482.668590 0,0 1,-845.704895,33.909351"
              stroke="#8f91ff" stroke-width="1.0" stroke-opacity="1.0"/>
        <path stroke-linecap="round" fill="none" class="id_45 id_59"
              d="M 306.413849,-616.875671 A 154.888185,154.888185 0,0 1,149.950806,-574.597473"
              stroke="#92d987" stroke-width="1.0" stroke-opacity="1.0"/>
        <path stroke-linecap="round" fill="none" class="id_45 id_78"
              d="M 330.261536,-616.706116 A 204.193743,204.193743 0,0 1,348.117584,-403.292236"
              stroke="#fcffa5" stroke-width="1.0" stroke-opacity="1.0"/>
        <path stroke-linecap="round" fill="none" class="id_45 id_79"
              d="M 320.978149,-612.687317 A 637.991359,637.991359 0,0 1,9.189495,15.313632"
              stroke="#c5c8d2" stroke-width="2.0" stroke-opacity="1.0"/>
        <path stroke-linecap="round" fill="none" class="id_57 id_58"
              d="M 816.900757,12.569302 A 171.780694,171.780694 0,0 1,659.965332,-66.466888"
              stroke="#fcffa5" stroke-width="1.0" stroke-opacity="1.0"/>
        <path stroke-linecap="round" fill="none" class="id_57 id_79"
              d="M 820.699280,21.655865 A 733.064699,733.064699 0,0 1,6.668015,75.223267"
              stroke="#c5c8d2" stroke-width="1.0" stroke-opacity="1.0"/>
        <path stroke-linecap="round" fill="none" class="id_57 id_88"
              d="M 832.869629,28.487156 A 217.018653,217.018653 0,0 1,689.988342,198.327835"
              stroke="#fcffa5" stroke-width="1.0" stroke-opacity="1.0"/>
        <path stroke-linecap="round" fill="none" class="id_58 id_79"
              d="M 638.293823,-69.191483 A 588.499631,588.499631 0,0 1,10.937127,67.211357"
              stroke="#c5c8d2" stroke-width="1.0" stroke-opacity="1.0"/>
        <path stroke-linecap="round" fill="none" class="id_58 id_88"
              d="M 662.001465,-67.802742 A 240.381613,240.381613 0,0 1,677.484680,181.835861"
              stroke="#fcffa5" stroke-width="1.0" stroke-opacity="1.0"/>
        <path stroke-linecap="round" fill="none" class="id_60 id_79"
              d="M 444.093964,57.198235 A 416.892887,416.892887 0,0 1,6.106064,76.092453"
              stroke="#8f91ff" stroke-width="1.0" stroke-opacity="1.0"/>
        <path stroke-linecap="round" fill="none" class="id_66 id_79"
              d="M 284.903351,-186.362930 A 344.181556,344.181556 0,0 1,15.835999,38.617107"
              stroke="#5ba2b4" stroke-width="1.0" stroke-opacity="1.0"/>
        <path stroke-linecap="round" fill="none" class="id_78 id_79"
              d="M 337.064056,-368.625427 A 479.972261,479.972261 0,0 1,13.948012,27.516676"
              stroke="#c5c8d2" stroke-width="2.0" stroke-opacity="1.0"/>
        <path stroke-linecap="round" fill="none" class="id_79 id_114"
              d="M -103.701057,49.040630 A 614.509151,614.509151 0,0 1,-681.037048,-283.185883"
              stroke="#8f91ff" stroke-width="1.0" stroke-opacity="1.0"/>
        <path stroke-linecap="round" fill="none" class="id_79 id_120"
              d="M -79.181656,-5.518270 A 499.711894,499.711894 0,0 1,-78.098778,-543.618469"
              stroke="#8f91ff" stroke-width="1.0" stroke-opacity="1.0"/>
        <path stroke-linecap="round" fill="none" class="id_79 id_122"
              d="M 0.535251,83.292770 A 717.429425,717.429425 0,0 1,166.077698,856.428223"
              stroke="#8f91ff" stroke-width="1.0" stroke-opacity="1.0"/>
        <path stroke-linecap="round" fill="none" class="id_79 id_135"
              d="M -28.171820,100.958229 A 420.895089,420.895089 0,0 1,-183.855042,515.932373"
              stroke="#c5c8d2" stroke-width="1.0" stroke-opacity="1.0"/>
        <path stroke-linecap="round" fill="none" class="id_79 id_137"
              d="M -95.457481,12.230456 A 473.683860,473.683860 0,0 1,-295.943787,-442.088074"
              stroke="#8f91ff" stroke-width="2.0" stroke-opacity="1.0"/>
        <path stroke-linecap="round" fill="none" class="id_79 id_140"
              d="M -10.599889,92.928680 A 321.572329,321.572329 0,0 1,-20.319748,416.219818"
              stroke="#8f91ff" stroke-width="1.0" stroke-opacity="1.0"/>
        <path stroke-linecap="round" fill="none" class="id_79 id_145"
              d="M -71.415459,-10.286118 A 630.175960,630.175960 0,0 1,36.746078,-696.077271"
              stroke="#8f91ff" stroke-width="1.0" stroke-opacity="1.0"/>
        <path stroke-linecap="round" fill="none" class="id_79 id_146"
              d="M -14.949808,95.582756 A 577.760089,577.760089 0,0 1,-85.175110,712.075989"
              stroke="#8f91ff" stroke-width="2.0" stroke-opacity="1.0"/>
        <path stroke-linecap="round" fill="none" class="id_79 id_147"
              d="M 5.040493,77.655624 A 476.926861,476.926861 0,0 1,172.954178,547.630737"
              stroke="#c5c8d2" stroke-width="2.0" stroke-opacity="1.0"/>
        <path stroke-linecap="round" fill="none" class="id_79 id_148"
              d="M -65.097473,-13.084584 A 424.849735,424.849735 0,0 1,52.945946,-445.232422"
              stroke="#8f91ff" stroke-width="1.0" stroke-opacity="1.0"/>
        <path stroke-linecap="round" fill="none" class="id_79 id_150"
              d="M -85.120445,-0.608098 A 631.130346,631.130346 0,0 1,-171.199509,-690.675659"
              stroke="#c5c8d2" stroke-width="1.0" stroke-opacity="1.0"/>
        <path stroke-linecap="round" fill="none" class="id_79 id_151"
              d="M -65.972954,98.913803 A 503.108450,503.108450 0,0 1,-520.549011,390.164856"
              stroke="#8f91ff" stroke-width="1.0" stroke-opacity="1.0"/>
        <path stroke-linecap="round" fill="none" class="id_79 id_169"
              d="M -6.692654,-3.910043 A 436.101108,436.101108 0,0 1,437.699707,-128.514038"
              stroke="#8f91ff" stroke-width="1.0" stroke-opacity="1.0"/>
        <path stroke-linecap="round" fill="none" class="id_79 id_81"
              d="M -79.432571,-5.335629 A 312.299665,312.299665 0,0 1,-83.207558,-317.548767"
              stroke="#8f91ff" stroke-width="1.0" stroke-opacity="1.0"/>
        <path stroke-linecap="round" fill="none" class="id_79 id_83"
              d="M -103.788597,38.079662 A 356.524593,356.524593 0,0 1,-377.943054,-187.858658"
              stroke="#c5c8d2" stroke-width="2.0" stroke-opacity="1.0"/>
        <path stroke-linecap="round" fill="none" class="id_79 id_85"
              d="M -95.215271,74.335922 A 660.731073,660.731073 0,0 1,-810.664551,23.247833"
              stroke="#8f91ff" stroke-width="3.0" stroke-opacity="1.0"/>
        <path stroke-linecap="round" fill="none" class="id_79 id_86"
              d="M -102.239159,28.663630 A 669.423395,669.423395 0,0 1,-576.512451,-529.099548"
              stroke="#c5c8d2" stroke-width="1.0" stroke-opacity="1.0"/>
        <path stroke-linecap="round" fill="none" class="id_79 id_87"
              d="M 12.359341,63.671764 A 687.215498,687.215498 0,0 1,435.728790,687.998047"
              stroke="#8f91ff" stroke-width="1.0" stroke-opacity="1.0"/>
        <path stroke-linecap="round" fill="none" class="id_79 id_88"
              d="M 11.992860,21.517447 A 604.573544,604.573544 0,0 1,644.459717,184.829086"
              stroke="#c5c8d2" stroke-width="2.0" stroke-opacity="1.0"/>
        <path stroke-linecap="round" fill="none" class="id_79 id_92"
              d="M 15.708350,49.016197 A 501.703166,501.703166 0,0 1,415.918213,397.079834"
              stroke="#8f91ff" stroke-width="2.0" stroke-opacity="1.0"/>
        <path stroke-linecap="round" fill="none" class="id_79 id_97"
              d="M -89.661964,82.002922 A 374.129827,374.129827 0,0 1,-457.950287,121.804848"
              stroke="#8f91ff" stroke-width="4.0" stroke-opacity="1.0"/>
        <path stroke-linecap="round" fill="none" class="id_83 id_114"
              d="M -412.170837,-205.527130 A 267.051152,267.051152 0,0 1,-675.923401,-286.441742"
              stroke="#c5c8d2" stroke-width="1.0" stroke-opacity="1.0"/>
        <path stroke-linecap="round" fill="none" class="id_83 id_137"
              d="M -392.537903,-239.537201 A 226.938391,226.938391 0,0 1,-313.251862,-452.756866"
              stroke="#c5c8d2" stroke-width="1.0" stroke-opacity="1.0"/>
        <path stroke-linecap="round" fill="none" class="id_83 id_85"
              d="M -399.588043,-189.901062 A 415.763584,415.763584 0,0 1,-804.115784,8.282738"
              stroke="#c5c8d2" stroke-width="1.0" stroke-opacity="1.0"/>
        <path stroke-linecap="round" fill="none" class="id_83 id_86"
              d="M -410.596649,-225.176239 A 327.552782,327.552782 0,0 1,-581.758911,-529.056213"
              stroke="#fcffa5" stroke-width="1.0" stroke-opacity="1.0"/>
        <path stroke-linecap="round" fill="none" class="id_83 id_97"
              d="M -378.839020,-187.576797 A 280.063313,280.063313 0,0 1,-462.026733,85.577721"
              stroke="#c5c8d2" stroke-width="2.0" stroke-opacity="1.0"/>
        <path stroke-linecap="round" fill="none" class="id_85 id_114"
              d="M -840.855713,-28.461100 A 284.998387,284.998387 0,0 1,-715.839172,-293.456055"
              stroke="#8f91ff" stroke-width="1.0" stroke-opacity="1.0"/>
        <path stroke-linecap="round" fill="none" class="id_85 id_137"
              d="M -828.239685,-27.928947 A 600.344011,600.344011 0,0 1,-318.304169,-466.104950"
              stroke="#8f91ff" stroke-width="1.0" stroke-opacity="1.0"/>
        <path stroke-linecap="round" fill="none" class="id_85 id_151"
              d="M -805.265808,13.126130 A 406.636794,406.636794 0,0 1,-538.764282,372.316498"
              stroke="#8f91ff" stroke-width="1.0" stroke-opacity="1.0"/>
        <path stroke-linecap="round" fill="none" class="id_85 id_86"
              d="M -841.695129,-28.318077 A 512.636546,512.636546 0,0 1,-602.637939,-542.393555"
              stroke="#c5c8d2" stroke-width="1.0" stroke-opacity="1.0"/>
        <path stroke-linecap="round" fill="none" class="id_85 id_97"
              d="M -805.168457,-6.217850 A 302.159742,302.159742 0,0 1,-510.074097,80.819695"
              stroke="#8f91ff" stroke-width="1.0" stroke-opacity="1.0"/>
        <path stroke-linecap="round" fill="none" class="id_86 id_114"
              d="M -575.178528,-529.275330 A 227.638744,227.638744 0,0 1,-670.022339,-321.575775"
              stroke="#c5c8d2" stroke-width="1.0" stroke-opacity="1.0"/>
        <path stroke-linecap="round" fill="none" class="id_86 id_137"
              d="M -553.642639,-563.658508 A 250.618302,250.618302 0,0 1,-308.582214,-489.392029"
              stroke="#c5c8d2" stroke-width="1.0" stroke-opacity="1.0"/>
        <path stroke-linecap="round" fill="none" class="id_86 id_97"
              d="M -560.920715,-536.267212 A 557.441130,557.441130 0,0 1,-472.839966,76.763519"
              stroke="#c5c8d2" stroke-width="1.0" stroke-opacity="1.0"/>
        <path stroke-linecap="round" fill="none" class="id_87 id_122"
              d="M 424.636536,737.397522 A 271.046208,271.046208 0,0 1,182.082809,881.908325"
              stroke="#8f91ff" stroke-width="1.0" stroke-opacity="1.0"/>
        <path stroke-linecap="round" fill="none" class="id_87 id_146"
              d="M 415.014801,729.640259 A 449.725578,449.725578 0,0 1,-79.714600,749.346008"
              stroke="#8f91ff" stroke-width="1.0" stroke-opacity="1.0"/>
        <path stroke-linecap="round" fill="none" class="id_87 id_147"
              d="M 409.881927,716.949585 A 252.436030,252.436030 0,0 1,180.149536,600.315552"
              stroke="#c5c8d2" stroke-width="1.0" stroke-opacity="1.0"/>
        <path stroke-linecap="round" fill="none" class="id_87 id_88"
              d="M 430.609070,688.488098 A 463.898958,463.898958 0,0 1,638.949524,220.111374"
              stroke="#c5c8d2" stroke-width="1.0" stroke-opacity="1.0"/>
        <path stroke-linecap="round" fill="none" class="id_87 id_92"
              d="M 420.290131,693.021362 A 242.728770,242.728770 0,0 1,409.197449,445.842773"
              stroke="#8f91ff" stroke-width="1.0" stroke-opacity="1.0"/>
        <path stroke-linecap="round" fill="none" class="id_88 id_122"
              d="M 662.428345,233.786270 A 703.134992,703.134992 0,0 1,180.958252,872.701050"
              stroke="#c5c8d2" stroke-width="1.0" stroke-opacity="1.0"/>
        <path stroke-linecap="round" fill="none" class="id_88 id_146"
              d="M 653.613464,232.168808 A 775.768453,775.768453 0,0 1,-75.132233,734.449524"
              stroke="#c5c8d2" stroke-width="1.0" stroke-opacity="1.0"/>
        <path stroke-linecap="round" fill="none" class="id_88 id_147"
              d="M 654.340515,232.416641 A 515.975372,515.975372 0,0 1,194.782837,574.701965"
              stroke="#fcffa5" stroke-width="1.0" stroke-opacity="1.0"/>
        <path stroke-linecap="round" fill="none" class="id_88 id_92"
              d="M 656.254639,232.965424 A 269.636881,269.636881 0,0 1,449.651337,419.124420"
              stroke="#c5c8d2" stroke-width="1.0" stroke-opacity="1.0"/>
        <path stroke-linecap="round" fill="none" class="id_92 id_122"
              d="M 425.380859,449.634094 A 441.371951,441.371951 0,0 1,179.782928,869.625061"
              stroke="#8f91ff" stroke-width="1.0" stroke-opacity="1.0"/>
        <path stroke-linecap="round" fill="none" class="id_92 id_146"
              d="M 412.159851,447.395691 A 509.739817,509.739817 0,0 1,-75.221992,736.169189"
              stroke="#8f91ff" stroke-width="1.0" stroke-opacity="1.0"/>
        <path stroke-linecap="round" fill="none" class="id_92 id_147"
              d="M 411.549133,447.113403 A 248.922542,248.922542 0,0 1,194.754608,576.821228"
              stroke="#c5c8d2" stroke-width="1.0" stroke-opacity="1.0"/>
        <path stroke-linecap="round" fill="none" class="id_97 id_114"
              d="M -517.937622,90.250931 A 384.940653,384.940653 0,0 1,-696.845093,-280.765778"
              stroke="#8f91ff" stroke-width="1.0" stroke-opacity="1.0"/>
        <path stroke-linecap="round" fill="none" class="id_97 id_137"
              d="M -497.780884,74.308647 A 506.858297,506.858297 0,0 1,-313.351563,-452.894348"
              stroke="#8f91ff" stroke-width="1.0" stroke-opacity="1.0"/>
        <path stroke-linecap="round" fill="none" class="id_97 id_146"
              d="M -457.229218,120.232849 A 612.970353,612.970353 0,0 1,-101.685402,705.339600"
              stroke="#8f91ff" stroke-width="1.0" stroke-opacity="1.0"/>
        <path stroke-linecap="round" fill="none" class="id_97 id_147"
              d="M -454.492523,106.987129 A 670.837986,670.837986 0,0 1,157.056931,548.346680"
              stroke="#c5c8d2" stroke-width="1.0" stroke-opacity="1.0"/>
        <path stroke-linecap="round" fill="none" class="id_114 id_137"
              d="M -678.038147,-329.790222 A 360.395137,360.395137 0,0 1,-317.748566,-474.577820"
              stroke="#8f91ff" stroke-width="1.0" stroke-opacity="1.0"/>
        <path stroke-linecap="round" fill="none" class="id_122 id_146"
              d="M 130.360703,882.411865 A 248.638906,248.638906 0,0 1,-90.715576,759.261902"
              stroke="#8f91ff" stroke-width="1.0" stroke-opacity="1.0"/>
        <path stroke-linecap="round" fill="none" class="id_122 id_147"
              d="M 142.443192,858.428772 A 254.316778,254.316778 0,0 1,149.644470,598.615479"
              stroke="#c5c8d2" stroke-width="1.0" stroke-opacity="1.0"/>
        <path stroke-linecap="round" fill="none" class="id_145 id_150"
              d="M 34.621696,-698.521790 A 176.305878,176.305878 0,0 1,-150.920029,-696.001953"
              stroke="#c5c8d2" stroke-width="1.0" stroke-opacity="1.0"/>
        <path stroke-linecap="round" fill="none" class="id_146 id_147"
              d="M -91.225815,708.128052 A 260.818776,260.818776 0,0 1,137.735428,573.728394"
              stroke="#c5c8d2" stroke-width="2.0" stroke-opacity="1.0"/>
    </g>
    <g id="nodes">
        <circle fill-opacity="1.0" fill="#fcffa5" r="17.097128" cx="537.335"
                class="id_2" cy="-310.5555" stroke="#b0b273"
                stroke-opacity="1.0" stroke-width="2.9734132"/>
        <circle fill-opacity="1.0" fill="#8f91ff" r="13.680756" cx="139.00879"
                class="id_22" cy="-298.5479" stroke="#6465b2"
                stroke-opacity="1.0" stroke-width="2.3792617"/>
        <circle fill-opacity="1.0" fill="#8f91ff" r="15.640381" cx="348.61713"
                class="id_25" cy="184.7653" stroke="#6465b2"
                stroke-opacity="1.0" stroke-width="2.720066"/>
        <circle fill-opacity="1.0" fill="#8f91ff" r="19.29647" cx="-755.72314"
                class="id_26" cy="295.3599" stroke="#6465b2"
                stroke-opacity="1.0" stroke-width="3.355908"/>
        <circle fill-opacity="1.0" fill="#fcffa5" r="22.789423" cx="-402.33676"
                class="id_29" cy="606.7729" stroke="#b0b273"
                stroke-opacity="1.0" stroke-width="3.963378"/>
        <circle fill-opacity="1.0" fill="#fcffa5" r="17.097128" cx="519.2073"
                class="id_35" cy="-533.2372" stroke="#b0b273"
                stroke-opacity="1.0" stroke-width="2.9734132"/>
        <circle fill-opacity="1.0" fill="#fcffa5" r="18.119005" cx="-303.64493"
                class="id_39" cy="330.42416" stroke="#b0b273"
                stroke-opacity="1.0" stroke-width="3.1511312"/>
        <circle fill-opacity="1.0" fill="#8f91ff" r="19.29647" cx="-664.9919"
                class="id_44" cy="556.72003" stroke="#6465b2"
                stroke-opacity="1.0" stroke-width="3.355908"/>
        <circle fill-opacity="1.0" fill="#fcffa5" r="17.264254" cx="318.4407"
                class="id_45" cy="-631.28046" stroke="#b0b273"
                stroke-opacity="1.0" stroke-width="3.0024788"/>
        <circle fill-opacity="1.0" fill="#fcffa5" r="16.84379" cx="835.06946"
                class="id_57" cy="10.311326" stroke="#b0b273"
                stroke-opacity="1.0" stroke-width="2.929355"/>
        <circle fill-opacity="1.0" fill="#fcffa5" r="16.84379" cx="650.9626"
                class="id_58" cy="-82.409" stroke="#b0b273" stroke-opacity="1.0"
                stroke-width="2.929355"/>
        <circle fill-opacity="1.0" fill="#28b36a" r="9.2" cx="140.45525"
                class="id_59" cy="-577.73346" stroke="#1c7d4a"
                stroke-opacity="1.0" stroke-width="1.5999999"/>
        <circle fill-opacity="1.0" fill="#8f91ff" r="13.680756" cx="456.24323"
                class="id_60" cy="48.623627" stroke="#6465b2"
                stroke-opacity="1.0" stroke-width="2.3792617"/>
        <circle fill-opacity="1.0" fill="#28b36a" r="13.680756" cx="289.55527"
                class="id_66" cy="-200.48695" stroke="#1c7d4a"
                stroke-opacity="1.0" stroke-width="2.3792617"/>
        <circle fill-opacity="1.0" fill="#fcffa5" r="17.097128" cx="338.97958"
                class="id_78" cy="-387.11026" stroke="#b0b273"
                stroke-opacity="1.0" stroke-width="2.9734132"/>
        <circle fill-opacity="1.0" fill="#8f91ff" r="55.2" cx="-43.99757"
                class="id_79" cy="43.08297" stroke="#6465b2"
                stroke-opacity="1.0" stroke-width="9.599999"/>
        <circle fill-opacity="1.0" fill="#8f91ff" r="13.680756" cx="-75.62346"
                class="id_81" cy="-330.33978" stroke="#6465b2"
                stroke-opacity="1.0" stroke-width="2.3792617"/>
        <circle fill-opacity="1.0" fill="#fcffa5" r="24.729286" cx="-386.45612"
                class="id_83" cy="-213.35461" stroke="#b0b273"
                stroke-opacity="1.0" stroke-width="4.300745"/>
        <circle fill-opacity="1.0" fill="#8f91ff" r="29.57696" cx="-835.87616"
                class="id_85" cy="3.2997851" stroke="#6465b2"
                stroke-opacity="1.0" stroke-width="5.143819"/>
        <circle fill-opacity="1.0" fill="#fcffa5" r="24.729286" cx="-579.3565"
                class="id_86" cy="-555.8283" stroke="#b0b273"
                stroke-opacity="1.0" stroke-width="4.300745"/>
        <circle fill-opacity="1.0" fill="#8f91ff" r="23.848547" cx="435.62662"
                class="id_87" cy="713.92017" stroke="#6465b2"
                stroke-opacity="1.0" stroke-width="4.147573"/>
        <circle fill-opacity="1.0" fill="#fcffa5" r="25.755358" cx="663.0083"
                class="id_88" cy="205.79733" stroke="#b0b273"
                stroke-opacity="1.0" stroke-width="4.4791923"/>
        <circle fill-opacity="1.0" fill="#8f91ff" r="24.670696" cx="423.1046"
                class="id_92" cy="422.91492" stroke="#6465b2"
                stroke-opacity="1.0" stroke-width="4.2905555"/>
        <circle fill-opacity="1.0" fill="#8f91ff" r="31.191616" cx="-488.3963"
                class="id_97" cy="106.88787" stroke="#6465b2"
                stroke-opacity="1.0" stroke-width="5.4246287"/>
        <circle fill-opacity="1.0" fill="#8f91ff" r="24.729286" cx="-692.82465"
                class="id_114" cy="-307.34305" stroke="#6465b2"
                stroke-opacity="1.0" stroke-width="4.300745"/>
        <circle fill-opacity="1.0" fill="#8f91ff" r="13.680756" cx="-69.88187"
                class="id_120" cy="-556.01245" stroke="#6465b2"
                stroke-opacity="1.0" stroke-width="2.3792617"/>
        <circle fill-opacity="1.0" fill="#8f91ff" r="23.848547" cx="156.20459"
                class="id_122" cy="880.3967" stroke="#6465b2"
                stroke-opacity="1.0" stroke-width="4.147573"/>
        <circle fill-opacity="1.0" fill="#fcffa5" r="13.680756" cx="-195.78502"
                class="id_135" cy="524.8095" stroke="#b0b273"
                stroke-opacity="1.0" stroke-width="2.3792617"/>
        <circle fill-opacity="1.0" fill="#8f91ff" r="24.729286" cx="-291.541"
                class="id_137" cy="-468.6047" stroke="#6465b2"
                stroke-opacity="1.0" stroke-width="4.300745"/>
        <circle fill-opacity="1.0" fill="#8f91ff" r="13.680756" cx="-28.470692"
                class="id_140" cy="428.6573" stroke="#6465b2"
                stroke-opacity="1.0" stroke-width="2.3792617"/>
        <circle fill-opacity="1.0" fill="#8f91ff" r="14.4841585" cx="47.504105"
                class="id_145" cy="-707.57196" stroke="#6465b2"
                stroke-opacity="1.0" stroke-width="2.518984"/>
        <circle fill-opacity="1.0" fill="#8f91ff" r="26.267563" cx="-103.67703"
                class="id_146" cy="733.8218" stroke="#6465b2"
                stroke-opacity="1.0" stroke-width="4.5682716"/>
        <circle fill-opacity="1.0" fill="#fcffa5" r="26.267563" cx="166.23923"
                class="id_147" cy="575.3816" stroke="#b0b273"
                stroke-opacity="1.0" stroke-width="4.5682716"/>
        <circle fill-opacity="1.0" fill="#8f91ff" r="13.680756" cx="64.01391"
                class="id_148" cy="-455.1636" stroke="#6465b2"
                stroke-opacity="1.0" stroke-width="2.3792617"/>
        <circle fill-opacity="1.0" fill="#fcffa5" r="14.4841585" cx="-164.04346"
                class="id_150" cy="-704.699" stroke="#b0b273"
                stroke-opacity="1.0" stroke-width="2.518984"/>
        <circle fill-opacity="1.0" fill="#8f91ff" r="16.202885" cx="-538.1591"
                class="id_151" cy="389.91794" stroke="#6465b2"
                stroke-opacity="1.0" stroke-width="2.817893"/>
        <circle fill-opacity="1.0" fill="#8f91ff" r="13.680756" cx="451.90027"
                class="id_169" cy="-124.1013" stroke="#6465b2"
                stroke-opacity="1.0" stroke-width="2.3792617"/>
    </g>
    <g id="node-labels">
        <text font-size="24" x="537.335" y="-305.06137" fill="#000000"
              style="text-anchor: middle; dominant-baseline: central;"
              font-family="Arial" class="id_2">
            Louise-Honorée-Françoise d&apos;Aubonne
        </text>
        <text font-size="18" x="139.00879" y="-295.25055" fill="#000000"
              style="text-anchor: middle; dominant-baseline: central;"
              font-family="Arial" class="id_22">
            Johannes Bürkli
        </text>
        <text font-size="21" x="348.61713" y="188.65324" fill="#000000"
              style="text-anchor: middle; dominant-baseline: central;"
              font-family="Arial" class="id_25">
            M. Chaloner
        </text>
        <text font-size="27" x="-755.72314" y="301.6968" fill="#000000"
              style="text-anchor: middle; dominant-baseline: central;"
              font-family="Arial" class="id_26">
            George Clarke
        </text>
        <text font-size="34" x="-402.33676" y="613.0676" fill="#000000"
              style="text-anchor: middle; dominant-baseline: central;"
              font-family="Arial" class="id_29">
            Mlle. Clarke
        </text>
        <text font-size="24" x="519.2073" y="-528.7938" fill="#000000"
              style="text-anchor: middle; dominant-baseline: central;"
              font-family="Arial" class="id_35">
            Louise Constant d&apos;Hermenches
        </text>
        <text font-size="25" x="-303.64493" y="335.05267" fill="#000000"
              style="text-anchor: middle; dominant-baseline: central;"
              font-family="Arial" class="id_39">
            Catherine Crousaz
        </text>
        <text font-size="27" x="-664.9919" y="563.05695" fill="#000000"
              style="text-anchor: middle; dominant-baseline: central;"
              font-family="Arial" class="id_44">
            Henri Crousaz de Mézery
        </text>
        <text font-size="25" x="318.4407" y="-625.41296" fill="#000000"
              style="text-anchor: middle; dominant-baseline: central;"
              font-family="Arial" class="id_45">
            Suzanne Crousaz de Mézery
        </text>
        <text font-size="23" x="835.06946" y="14.569546" fill="#000000"
              style="text-anchor: middle; dominant-baseline: central;"
              font-family="Arial" class="id_57">
            Catherine de Chandieu Villars
        </text>
        <text font-size="23" x="650.9626" y="-78.15077" fill="#000000"
              style="text-anchor: middle; dominant-baseline: central;"
              font-family="Arial" class="id_58">
            Marie de Chandieu Villars
        </text>
        <text font-size="12" x="140.45525" y="-575.5489" fill="#000000"
              style="text-anchor: middle; dominant-baseline: central;"
              font-family="Arial" class="id_59">
            de Jouxtens
        </text>
        <text font-size="18" x="456.24323" y="51.956146" fill="#000000"
              style="text-anchor: middle; dominant-baseline: central;"
              font-family="Arial" class="id_60">
            Chevalier de la Chebaudie
        </text>
        <text font-size="18" x="289.55527" y="-196.37074" fill="#000000"
              style="text-anchor: middle; dominant-baseline: central;"
              font-family="Arial" class="id_66">
            Dupleix
        </text>
        <text font-size="24" x="338.97958" y="-381.47745" fill="#000000"
              style="text-anchor: middle; dominant-baseline: central;"
              font-family="Arial" class="id_78">
            Angélique Gentils de Langallerie
        </text>
        <text font-size="144" x="-43.99757" y="69.743126" fill="#000000"
              style="text-anchor: middle; dominant-baseline: central;"
              font-family="Arial" class="id_79">
            Edward Gibbon
        </text>
        <text font-size="18" x="-75.62346" y="-327.00726" fill="#000000"
              style="text-anchor: middle; dominant-baseline: central;"
              font-family="Arial" class="id_81">
            Alexandre de Golowkin
        </text>
        <text font-size="37" x="-386.45612" y="-206.50443" fill="#000000"
              style="text-anchor: middle; dominant-baseline: central;"
              font-family="Arial" class="id_83">
            Mme. de Goumoens
        </text>
        <text font-size="49" x="-835.87616" y="14.800112" fill="#000000"
              style="text-anchor: middle; dominant-baseline: central;"
              font-family="Arial" class="id_85">
            Major George Grand
        </text>
        <text font-size="37" x="-579.3565" y="-548.97815" fill="#000000"
              style="text-anchor: middle; dominant-baseline: central;"
              font-family="Arial" class="id_86">
            Anne-Catherine Grand
        </text>
        <text font-size="36" x="435.62662" y="722.2639" fill="#000000"
              style="text-anchor: middle; dominant-baseline: central;"
              font-family="Arial" class="id_87">
            Jacques Grand
        </text>
        <text font-size="41" x="663.0083" y="215.2699" fill="#000000"
              style="text-anchor: middle; dominant-baseline: central;"
              font-family="Arial" class="id_88">
            Françoise-Elisabeth Grand
        </text>
        <text font-size="38" x="423.1046" y="429.95026" fill="#000000"
              style="text-anchor: middle; dominant-baseline: central;"
              font-family="Arial" class="id_92">
            William Guise
        </text>
        <text font-size="51" x="-488.3963" y="116.172295" fill="#000000"
              style="text-anchor: middle; dominant-baseline: central;"
              font-family="Arial" class="id_97">
            David Jenner
        </text>
        <text font-size="37" x="-692.82465" y="-300.6133" fill="#000000"
              style="text-anchor: middle; dominant-baseline: central;"
              font-family="Arial" class="id_114">
            Albert de Mullinen
        </text>
        <text font-size="18" x="-69.88187" y="-552.7385" fill="#000000"
              style="text-anchor: middle; dominant-baseline: central;"
              font-family="Arial" class="id_120">
            Daniel Pavillard
        </text>
        <text font-size="36" x="156.20459" y="888.84595" fill="#000000"
              style="text-anchor: middle; dominant-baseline: central;"
              font-family="Arial" class="id_122">
            Georges-Louis Polier
        </text>
        <text font-size="18" x="-195.78502" y="528.08344" fill="#000000"
              style="text-anchor: middle; dominant-baseline: central;"
              font-family="Arial" class="id_135">
            Mlle. Rosset
        </text>
        <text font-size="37" x="-291.541" y="-461.76056" fill="#000000"
              style="text-anchor: middle; dominant-baseline: central;"
              font-family="Arial" class="id_137">
            Antoine-Emmanuel Rosset de Rochefort
        </text>
        <text font-size="18" x="-28.470692" y="431.9898" fill="#000000"
              style="text-anchor: middle; dominant-baseline: central;"
              font-family="Arial" class="id_140">
            Louis-André Saussure de Boussens
        </text>
        <text font-size="19" x="47.504105" y="-703.1127" fill="#000000"
              style="text-anchor: middle; dominant-baseline: central;"
              font-family="Arial" class="id_145">
            François de Seigneux
        </text>
        <text font-size="40" x="-103.67703" y="743.20984" fill="#000000"
              style="text-anchor: middle; dominant-baseline: central;"
              font-family="Arial" class="id_146">
            Jean-Daniel de Seigneux
        </text>
        <text font-size="40" x="166.23923" y="584.76965" fill="#000000"
              style="text-anchor: middle; dominant-baseline: central;"
              font-family="Arial" class="id_147">
            Françoise-Charlotte de Seigneux
        </text>
        <text font-size="18" x="64.01391" y="-450.939" fill="#000000"
              style="text-anchor: middle; dominant-baseline: central;"
              font-family="Arial" class="id_148">
            Jean-Samuel de Seigneux
        </text>
        <text font-size="19" x="-164.04346" y="-700.2396" fill="#000000"
              style="text-anchor: middle; dominant-baseline: central;"
              font-family="Arial" class="id_150">
            Rose de Seigneux
        </text>
        <text font-size="22" x="-538.1591" y="395.08136" fill="#000000"
              style="text-anchor: middle; dominant-baseline: central;"
              font-family="Arial" class="id_151">
            Gabriel Seigneux de Correvon
        </text>
        <text font-size="18" x="451.90027" y="-119.93236" fill="#000000"
              style="text-anchor: middle; dominant-baseline: central;"
              font-family="Arial" class="id_169">
            Prince de Wurtemberg
        </text>
    </g>
</svg>